<?xml version="1.0" standalone="yes"?>

<svg version="1.1" viewBox="0.0 0.0 547.0 408.0" fill="none" stroke="none" stroke-linecap="square" stroke-miterlimit="10" xmlns="http://www.w3.org/2000/svg" xmlns:xlink="http://www.w3.org/1999/xlink"><clipPath id="p.0"><path d="m0 0l547.0 0l0 408.0l-547.0 0l0 -408.0z" clip-rule="nonzero"></path></clipPath><g clip-path="url(#p.0)"><path fill="#000000" fill-opacity="0.0" d="m0 0l547.35956 0l0 408.5643l-547.35956 0z" fill-rule="nonzero"></path><path fill="#93c47d" d="m208.74934 82.0l0 0c0 -35.241856 28.569168 -63.811024 63.81102 -63.811024l0 0c16.923737 0 33.154327 6.722927 45.121216 18.689816c11.966888 11.966888 18.68982 28.197472 18.68982 45.12121l0 0c0 35.24186 -28.569183 63.81102 -63.811035 63.81102l0 0c-35.24185 0 -63.81102 -28.56916 -63.81102 -63.81102z" fill-rule="nonzero"></path><path stroke="#000000" stroke-width="2.0" stroke-linejoin="round" stroke-linecap="butt" d="m208.74934 82.0l0 0c0 -35.241856 28.569168 -63.811024 63.81102 -63.811024l0 0c16.923737 0 33.154327 6.722927 45.121216 18.689816c11.966888 11.966888 18.68982 28.197472 18.68982 45.12121l0 0c0 35.24186 -28.569183 63.81102 -63.811035 63.81102l0 0c-35.24185 0 -63.81102 -28.56916 -63.81102 -63.81102z" fill-rule="nonzero"></path><path fill="#000000" d="m245.81427 78.36l0 -11.453125l5.078125 0q1.53125 0 2.328125 0.3125q0.796875 0.296875 1.265625 1.078125q0.484375 0.78125 0.484375 1.734375q0 1.21875 -0.796875 2.0625q-0.78125 0.828125 -2.4375 1.046875q0.609375 0.296875 0.921875 0.578125q0.65625 0.609375 1.25 1.515625l2.0 3.125l-1.90625 0l-1.515625 -2.390625q-0.671875 -1.03125 -1.109375 -1.578125q-0.421875 -0.546875 -0.765625 -0.765625q-0.328125 -0.21875 -0.6875 -0.296875q-0.25 -0.0625 -0.84375 -0.0625l-1.75 0l0 5.09375l-1.515625 0zm1.515625 -6.40625l3.25 0q1.046875 0 1.625 -0.203125q0.59375 -0.21875 0.890625 -0.6875q0.3125 -0.484375 0.3125 -1.03125q0 -0.8125 -0.59375 -1.328125q-0.59375 -0.53125 -1.859375 -0.53125l-3.625 0l0 3.78125zm15.5078125 3.734375l1.453125 0.171875q-0.34375 1.28125 -1.28125 1.984375q-0.921875 0.703125 -2.359375 0.703125q-1.828125 0 -2.890625 -1.125q-1.0625 -1.125 -1.0625 -3.140625q0 -2.09375 1.078125 -3.25q1.078125 -1.15625 2.796875 -1.15625q1.65625 0 2.703125 1.140625q1.0625 1.125 1.0625 3.171875q0 0.125 0 0.375l-6.1875 0q0.078125 1.375 0.765625 2.109375q0.703125 0.71875 1.734375 0.71875q0.78125 0 1.328125 -0.40625q0.546875 -0.40625 0.859375 -1.296875zm-4.609375 -2.28125l4.625 0q-0.09375 -1.046875 -0.53125 -1.5625q-0.671875 -0.8125 -1.734375 -0.8125q-0.96875 0 -1.640625 0.65625q-0.65625 0.640625 -0.71875 1.71875zm7.8359375 4.953125l0 -8.296875l1.25 0l0 1.15625q0.390625 -0.609375 1.03125 -0.96875q0.65625 -0.375 1.484375 -0.375q0.921875 0 1.515625 0.390625q0.59375 0.375 0.828125 1.0625q0.984375 -1.453125 2.5625 -1.453125q1.234375 0 1.890625 0.6875q0.671875 0.671875 0.671875 2.09375l0 5.703125l-1.390625 0l0 -5.234375q0 -0.84375 -0.140625 -1.203125q-0.140625 -0.375 -0.5 -0.59375q-0.359375 -0.234375 -0.84375 -0.234375q-0.875 0 -1.453125 0.578125q-0.578125 0.578125 -0.578125 1.859375l0 4.828125l-1.40625 0l0 -5.390625q0 -0.9375 -0.34375 -1.40625q-0.34375 -0.46875 -1.125 -0.46875q-0.59375 0 -1.09375 0.3125q-0.5 0.3125 -0.734375 0.921875q-0.21875 0.59375 -0.21875 1.71875l0 4.3125l-1.40625 0zm12.796875 -4.15625q0 -2.296875 1.28125 -3.40625q1.078125 -0.921875 2.609375 -0.921875q1.71875 0 2.796875 1.125q1.09375 1.109375 1.09375 3.09375q0 1.59375 -0.484375 2.515625q-0.484375 0.921875 -1.40625 1.4375q-0.90625 0.5 -2.0 0.5q-1.734375 0 -2.8125 -1.109375q-1.078125 -1.125 -1.078125 -3.234375zm1.453125 0q0 1.59375 0.6875 2.390625q0.703125 0.796875 1.75 0.796875q1.046875 0 1.734375 -0.796875q0.703125 -0.796875 0.703125 -2.4375q0 -1.53125 -0.703125 -2.328125q-0.6875 -0.796875 -1.734375 -0.796875q-1.046875 0 -1.75 0.796875q-0.6875 0.78125 -0.6875 2.375zm11.0390625 2.890625l0.203125 1.25q-0.59375 0.125 -1.0625 0.125q-0.765625 0 -1.1875 -0.234375q-0.421875 -0.25 -0.59375 -0.640625q-0.171875 -0.40625 -0.171875 -1.671875l0 -4.765625l-1.03125 0l0 -1.09375l1.03125 0l0 -2.0625l1.40625 -0.84375l0 2.90625l1.40625 0l0 1.09375l-1.40625 0l0 4.84375q0 0.609375 0.0625 0.78125q0.078125 0.171875 0.25 0.28125q0.171875 0.09375 0.484375 0.09375q0.234375 0 0.609375 -0.0625zm7.0546875 -1.40625l1.453125 0.171875q-0.34375 1.28125 -1.28125 1.984375q-0.921875 0.703125 -2.359375 0.703125q-1.828125 0 -2.890625 -1.125q-1.0625 -1.125 -1.0625 -3.140625q0 -2.09375 1.078125 -3.25q1.078125 -1.15625 2.796875 -1.15625q1.65625 0 2.703125 1.140625q1.0625 1.125 1.0625 3.171875q0 0.125 0 0.375l-6.1875 0q0.078125 1.375 0.765625 2.109375q0.703125 0.71875 1.734375 0.71875q0.78125 0 1.328125 -0.40625q0.546875 -0.40625 0.859375 -1.296875zm-4.609375 -2.28125l4.625 0q-0.09375 -1.046875 -0.53125 -1.5625q-0.671875 -0.8125 -1.734375 -0.8125q-0.96875 0 -1.640625 0.65625q-0.65625 0.640625 -0.71875 1.71875z" fill-rule="nonzero"></path><path fill="#000000" d="m238.48224 97.36l0 -8.296875l1.265625 0l0 1.25q0.484375 -0.875 0.890625 -1.15625q0.40625 -0.28125 0.90625 -0.28125q0.703125 0 1.4375 0.453125l-0.484375 1.296875q-0.515625 -0.296875 -1.03125 -0.296875q-0.453125 0 -0.828125 0.28125q-0.359375 0.265625 -0.515625 0.765625q-0.234375 0.75 -0.234375 1.640625l0 4.34375l-1.40625 0zm11.015625 -2.671875l1.453125 0.171875q-0.34375 1.28125 -1.28125 1.984375q-0.921875 0.703125 -2.359375 0.703125q-1.828125 0 -2.890625 -1.125q-1.0625 -1.125 -1.0625 -3.140625q0 -2.09375 1.078125 -3.25q1.078125 -1.15625 2.796875 -1.15625q1.65625 0 2.703125 1.140625q1.0625 1.125 1.0625 3.171875q0 0.125 0 0.375l-6.1875 0q0.078125 1.375 0.765625 2.109375q0.703125 0.71875 1.734375 0.71875q0.78125 0 1.328125 -0.40625q0.546875 -0.40625 0.859375 -1.296875zm-4.609375 -2.28125l4.625 0q-0.09375 -1.046875 -0.53125 -1.5625q-0.671875 -0.8125 -1.734375 -0.8125q-0.96875 0 -1.640625 0.65625q-0.65625 0.640625 -0.71875 1.71875zm7.8359375 8.140625l0 -11.484375l1.28125 0l0 1.078125q0.453125 -0.640625 1.015625 -0.953125q0.578125 -0.3125 1.390625 -0.3125q1.0625 0 1.875 0.546875q0.8125 0.546875 1.21875 1.546875q0.421875 0.984375 0.421875 2.171875q0 1.28125 -0.46875 2.296875q-0.453125 1.015625 -1.328125 1.5625q-0.859375 0.546875 -1.828125 0.546875q-0.703125 0 -1.265625 -0.296875q-0.546875 -0.296875 -0.90625 -0.75l0 4.046875l-1.40625 0zm1.265625 -7.296875q0 1.609375 0.640625 2.375q0.65625 0.765625 1.578125 0.765625q0.9375 0 1.609375 -0.796875q0.671875 -0.796875 0.671875 -2.453125q0 -1.59375 -0.65625 -2.375q-0.65625 -0.796875 -1.5625 -0.796875q-0.890625 0 -1.59375 0.84375q-0.6875 0.84375 -0.6875 2.4375zm7.1015625 -0.046875q0 -2.296875 1.28125 -3.40625q1.078125 -0.921875 2.609375 -0.921875q1.71875 0 2.796875 1.125q1.09375 1.109375 1.09375 3.09375q0 1.59375 -0.484375 2.515625q-0.484375 0.921875 -1.40625 1.4375q-0.90625 0.5 -2.0 0.5q-1.734375 0 -2.8125 -1.109375q-1.078125 -1.125 -1.078125 -3.234375zm1.453125 0q0 1.59375 0.6875 2.390625q0.703125 0.796875 1.75 0.796875q1.046875 0 1.734375 -0.796875q0.703125 -0.796875 0.703125 -2.4375q0 -1.53125 -0.703125 -2.328125q-0.6875 -0.796875 -1.734375 -0.796875q-1.046875 0 -1.75 0.796875q-0.6875 0.78125 -0.6875 2.375zm7.4140625 1.671875l1.390625 -0.21875q0.109375 0.84375 0.640625 1.296875q0.546875 0.4375 1.5 0.4375q0.96875 0 1.4375 -0.390625q0.46875 -0.40625 0.46875 -0.9375q0 -0.46875 -0.40625 -0.75q-0.296875 -0.1875 -1.4375 -0.46875q-1.546875 -0.390625 -2.15625 -0.671875q-0.59375 -0.296875 -0.90625 -0.796875q-0.296875 -0.5 -0.296875 -1.109375q0 -0.5625 0.25 -1.03125q0.25 -0.46875 0.6875 -0.78125q0.328125 -0.25 0.890625 -0.40625q0.578125 -0.171875 1.21875 -0.171875q0.984375 0 1.71875 0.28125q0.734375 0.28125 1.078125 0.765625q0.359375 0.46875 0.5 1.28125l-1.375 0.1875q-0.09375 -0.640625 -0.546875 -1.0q-0.453125 -0.359375 -1.265625 -0.359375q-0.96875 0 -1.390625 0.328125q-0.40625 0.3125 -0.40625 0.734375q0 0.28125 0.171875 0.5q0.171875 0.21875 0.53125 0.375q0.21875 0.078125 1.25 0.359375q1.484375 0.390625 2.078125 0.65625q0.59375 0.25 0.921875 0.734375q0.34375 0.484375 0.34375 1.203125q0 0.703125 -0.421875 1.328125q-0.40625 0.609375 -1.1875 0.953125q-0.765625 0.34375 -1.734375 0.34375q-1.625 0 -2.46875 -0.671875q-0.84375 -0.671875 -1.078125 -2.0zm8.5625 -7.359375l0 -1.609375l1.40625 0l0 1.609375l-1.40625 0zm0 9.84375l0 -8.296875l1.40625 0l0 8.296875l-1.40625 0zm6.6171875 -1.265625l0.203125 1.25q-0.59375 0.125 -1.0625 0.125q-0.765625 0 -1.1875 -0.234375q-0.421875 -0.25 -0.59375 -0.640625q-0.171875 -0.40625 -0.171875 -1.671875l0 -4.765625l-1.03125 0l0 -1.09375l1.03125 0l0 -2.0625l1.40625 -0.84375l0 2.90625l1.40625 0l0 1.09375l-1.40625 0l0 4.84375q0 0.609375 0.0625 0.78125q0.078125 0.171875 0.25 0.28125q0.171875 0.09375 0.484375 0.09375q0.234375 0 0.609375 -0.0625zm0.8515625 -2.890625q0 -2.296875 1.28125 -3.40625q1.078125 -0.921875 2.609375 -0.921875q1.71875 0 2.796875 1.125q1.09375 1.109375 1.09375 3.09375q0 1.59375 -0.484375 2.515625q-0.484375 0.921875 -1.40625 1.4375q-0.90625 0.5 -2.0 0.5q-1.734375 0 -2.8125 -1.109375q-1.078125 -1.125 -1.078125 -3.234375zm1.453125 0q0 1.59375 0.6875 2.390625q0.703125 0.796875 1.75 0.796875q1.046875 0 1.734375 -0.796875q0.703125 -0.796875 0.703125 -2.4375q0 -1.53125 -0.703125 -2.328125q-0.6875 -0.796875 -1.734375 -0.796875q-1.046875 0 -1.75 0.796875q-0.6875 0.78125 -0.6875 2.375zm7.9609375 4.15625l0 -8.296875l1.265625 0l0 1.25q0.484375 -0.875 0.890625 -1.15625q0.40625 -0.28125 0.90625 -0.28125q0.703125 0 1.4375 0.453125l-0.484375 1.296875q-0.515625 -0.296875 -1.03125 -0.296875q-0.453125 0 -0.828125 0.28125q-0.359375 0.265625 -0.515625 0.765625q-0.234375 0.75 -0.234375 1.640625l0 4.34375l-1.40625 0zm5.28125 3.203125l-0.15625 -1.328125q0.453125 0.125 0.796875 0.125q0.46875 0 0.75 -0.15625q0.28125 -0.15625 0.46875 -0.4375q0.125 -0.203125 0.421875 -1.046875q0.046875 -0.109375 0.125 -0.34375l-3.140625 -8.3125l1.515625 0l1.71875 4.796875q0.34375 0.921875 0.609375 1.921875q0.234375 -0.96875 0.578125 -1.890625l1.765625 -4.828125l1.40625 0l-3.15625 8.4375q-0.5 1.375 -0.78125 1.890625q-0.375 0.6875 -0.859375 1.015625q-0.484375 0.328125 -1.15625 0.328125q-0.40625 0 -0.90625 -0.171875z" fill-rule="nonzero"></path><path fill="#93c47d" d="m66.125984 249.0105l0 0c0 -35.24185 28.569168 -63.81102 63.811028 -63.81102l0 0c16.923737 0 33.154312 6.722931 45.1212 18.68982c11.966888 11.966888 18.68982 28.197464 18.68982 45.1212l0 0c0 35.24185 -28.569168 63.811035 -63.81102 63.811035l0 0c-35.24186 0 -63.811028 -28.569183 -63.811028 -63.811035z" fill-rule="nonzero"></path><path stroke="#000000" stroke-width="2.0" stroke-linejoin="round" stroke-linecap="butt" d="m66.125984 249.0105l0 0c0 -35.24185 28.569168 -63.81102 63.811028 -63.81102l0 0c16.923737 0 33.154312 6.722931 45.1212 18.68982c11.966888 11.966888 18.68982 28.197464 18.68982 45.1212l0 0c0 35.24185 -28.569168 63.811035 -63.81102 63.811035l0 0c-35.24186 0 -63.811028 -28.569183 -63.811028 -63.811035z" fill-rule="nonzero"></path><path fill="#000000" d="m106.788574 245.3705l4.40625 -11.453125l1.640625 0l4.6875 11.453125l-1.734375 0l-1.328125 -3.46875l-4.796875 0l-1.25 3.46875l-1.625 0zm3.3125 -4.703125l3.890625 0l-1.203125 -3.171875q-0.546875 -1.453125 -0.8125 -2.375q-0.21875 1.09375 -0.609375 2.1875l-1.265625 3.359375zm8.421875 4.703125l0 -11.453125l1.40625 0l0 11.453125l-1.40625 0zm3.5859375 -9.84375l0 -1.609375l1.40625 0l0 1.609375l-1.40625 0zm0 9.84375l0 -8.296875l1.40625 0l0 8.296875l-1.40625 0zm8.9609375 -3.046875l1.390625 0.1875q-0.234375 1.421875 -1.171875 2.234375q-0.921875 0.8125 -2.28125 0.8125q-1.703125 0 -2.75 -1.109375q-1.03125 -1.125 -1.03125 -3.203125q0 -1.34375 0.4375 -2.34375q0.453125 -1.015625 1.359375 -1.515625q0.921875 -0.5 1.984375 -0.5q1.359375 0 2.21875 0.6875q0.859375 0.671875 1.09375 1.9375l-1.359375 0.203125q-0.203125 -0.828125 -0.703125 -1.25q-0.484375 -0.421875 -1.1875 -0.421875q-1.0625 0 -1.734375 0.765625q-0.65625 0.75 -0.65625 2.40625q0 1.671875 0.640625 2.4375q0.640625 0.75 1.671875 0.75q0.828125 0 1.375 -0.5q0.5625 -0.515625 0.703125 -1.578125zm8.265625 0.375l1.453125 0.171875q-0.34375 1.28125 -1.28125 1.984375q-0.921875 0.703125 -2.359375 0.703125q-1.828125 0 -2.890625 -1.125q-1.0625 -1.125 -1.0625 -3.140625q0 -2.09375 1.078125 -3.25q1.078125 -1.15625 2.796875 -1.15625q1.65625 0 2.703125 1.140625q1.0625 1.125 1.0625 3.171875q0 0.125 0 0.375l-6.1875 0q0.078125 1.375 0.765625 2.109375q0.703125 0.71875 1.734375 0.71875q0.78125 0 1.328125 -0.40625q0.546875 -0.40625 0.859375 -1.296875zm-4.609375 -2.28125l4.625 0q-0.09375 -1.046875 -0.53125 -1.5625q-0.671875 -0.8125 -1.734375 -0.8125q-0.96875 0 -1.640625 0.65625q-0.65625 0.640625 -0.71875 1.71875zm7.7421875 -4.984375l0 -1.640625l1.515625 0l0 1.296875q0 1.046875 -0.25 1.5q-0.328125 0.640625 -1.046875 0.953125l-0.34375 -0.546875q0.421875 -0.171875 0.625 -0.546875q0.21875 -0.375 0.234375 -1.015625l-0.734375 0zm3.0859375 7.453125l1.390625 -0.21875q0.109375 0.84375 0.640625 1.296875q0.546875 0.4375 1.5 0.4375q0.96875 0 1.4375 -0.390625q0.46875 -0.40625 0.46875 -0.9375q0 -0.46875 -0.40625 -0.75q-0.296875 -0.1875 -1.4375 -0.46875q-1.546875 -0.390625 -2.15625 -0.671875q-0.59375 -0.296875 -0.90625 -0.796875q-0.296875 -0.5 -0.296875 -1.109375q0 -0.5625 0.25 -1.03125q0.25 -0.46875 0.6875 -0.78125q0.328125 -0.25 0.890625 -0.40625q0.578125 -0.171875 1.21875 -0.171875q0.984375 0 1.71875 0.28125q0.734375 0.28125 1.078125 0.765625q0.359375 0.46875 0.5 1.28125l-1.375 0.1875q-0.09375 -0.640625 -0.546875 -1.0q-0.453125 -0.359375 -1.265625 -0.359375q-0.96875 0 -1.390625 0.328125q-0.40625 0.3125 -0.40625 0.734375q0 0.28125 0.171875 0.5q0.171875 0.21875 0.53125 0.375q0.21875 0.078125 1.25 0.359375q1.484375 0.390625 2.078125 0.65625q0.59375 0.25 0.921875 0.734375q0.34375 0.484375 0.34375 1.203125q0 0.703125 -0.421875 1.328125q-0.40625 0.609375 -1.1875 0.953125q-0.765625 0.34375 -1.734375 0.34375q-1.625 0 -2.46875 -0.671875q-0.84375 -0.671875 -1.078125 -2.0z" fill-rule="nonzero"></path><path fill="#000000" d="m95.85889 264.3705l0 -8.296875l1.265625 0l0 1.25q0.484375 -0.875 0.890625 -1.15625q0.40625 -0.28126526 0.90625 -0.28126526q0.703125 0 1.4375 0.45314026l-0.484375 1.296875q-0.515625 -0.296875 -1.03125 -0.296875q-0.453125 0 -0.828125 0.28125q-0.359375 0.265625 -0.515625 0.765625q-0.234375 0.75 -0.234375 1.640625l0 4.34375l-1.40625 0zm11.015625 -2.671875l1.453125 0.171875q-0.34375 1.28125 -1.28125 1.984375q-0.921875 0.703125 -2.359375 0.703125q-1.828125 0 -2.890625 -1.125q-1.0625 -1.125 -1.0625 -3.140625q0 -2.09375 1.078125 -3.25q1.078125 -1.1562653 2.796875 -1.1562653q1.65625 0 2.703125 1.1406403q1.0625 1.125 1.0625 3.171875q0 0.125 0 0.375l-6.1875 0q0.078125 1.375 0.765625 2.109375q0.703125 0.71875 1.734375 0.71875q0.78125 0 1.328125 -0.40625q0.546875 -0.40625 0.859375 -1.296875zm-4.609375 -2.28125l4.625 0q-0.09375 -1.046875 -0.53125 -1.5625q-0.671875 -0.8125 -1.734375 -0.8125q-0.96875 0 -1.640625 0.65625q-0.65625 0.640625 -0.71875 1.71875zm7.8359375 8.140625l0 -11.484375l1.28125 0l0 1.078125q0.453125 -0.640625 1.015625 -0.953125q0.578125 -0.31251526 1.390625 -0.31251526q1.0625 0 1.875 0.54689026q0.8125 0.546875 1.21875 1.546875q0.421875 0.984375 0.421875 2.171875q0 1.28125 -0.46875 2.296875q-0.453125 1.015625 -1.328125 1.5625q-0.859375 0.546875 -1.828125 0.546875q-0.703125 0 -1.265625 -0.296875q-0.546875 -0.296875 -0.90625 -0.75l0 4.046875l-1.40625 0zm1.265625 -7.296875q0 1.609375 0.640625 2.375q0.65625 0.765625 1.578125 0.765625q0.9375 0 1.609375 -0.796875q0.671875 -0.796875 0.671875 -2.453125q0 -1.59375 -0.65625 -2.375q-0.65625 -0.796875 -1.5625 -0.796875q-0.890625 0 -1.59375 0.84375q-0.6875 0.84375 -0.6875 2.4375zm7.1015625 -0.046875q0 -2.296875 1.28125 -3.40625q1.078125 -0.92189026 2.609375 -0.92189026q1.71875 0 2.796875 1.1250153q1.09375 1.109375 1.09375 3.09375q0 1.59375 -0.484375 2.515625q-0.484375 0.921875 -1.40625 1.4375q-0.90625 0.5 -2.0 0.5q-1.734375 0 -2.8125 -1.109375q-1.078125 -1.125 -1.078125 -3.234375zm1.453125 0q0 1.59375 0.6875 2.390625q0.703125 0.796875 1.75 0.796875q1.046875 0 1.734375 -0.796875q0.703125 -0.796875 0.703125 -2.4375q0 -1.53125 -0.703125 -2.328125q-0.6875 -0.796875 -1.734375 -0.796875q-1.046875 0 -1.75 0.796875q-0.6875 0.78125 -0.6875 2.375zm7.4140625 1.671875l1.390625 -0.21875q0.109375 0.84375 0.640625 1.296875q0.546875 0.4375 1.5 0.4375q0.96875 0 1.4375 -0.390625q0.46875 -0.40625 0.46875 -0.9375q0 -0.46875 -0.40625 -0.75q-0.296875 -0.1875 -1.4375 -0.46875q-1.546875 -0.390625 -2.15625 -0.671875q-0.59375 -0.296875 -0.90625 -0.796875q-0.296875 -0.5 -0.296875 -1.109375q0 -0.5625 0.25 -1.03125q0.25 -0.46875 0.6875 -0.78125q0.328125 -0.25 0.890625 -0.40625q0.578125 -0.17189026 1.21875 -0.17189026q0.984375 0 1.71875 0.28126526q0.734375 0.28125 1.078125 0.765625q0.359375 0.46875 0.5 1.28125l-1.375 0.1875q-0.09375 -0.640625 -0.546875 -1.0q-0.453125 -0.359375 -1.265625 -0.359375q-0.96875 0 -1.390625 0.328125q-0.40625 0.3125 -0.40625 0.734375q0 0.28125 0.171875 0.5q0.171875 0.21875 0.53125 0.375q0.21875 0.078125 1.25 0.359375q1.484375 0.390625 2.078125 0.65625q0.59375 0.25 0.921875 0.734375q0.34375 0.484375 0.34375 1.203125q0 0.703125 -0.421875 1.328125q-0.40625 0.609375 -1.1875 0.953125q-0.765625 0.34375 -1.734375 0.34375q-1.625 0 -2.46875 -0.671875q-0.84375 -0.671875 -1.078125 -2.0zm8.5625 -7.3593903l0 -1.609375l1.40625 0l0 1.609375l-1.40625 0zm0 9.843765l0 -8.296875l1.40625 0l0 8.296875l-1.40625 0zm6.6171875 -1.265625l0.203125 1.25q-0.59375 0.125 -1.0625 0.125q-0.765625 0 -1.1875 -0.234375q-0.421875 -0.25 -0.59375 -0.640625q-0.171875 -0.40625 -0.171875 -1.671875l0 -4.765625l-1.03125 0l0 -1.09375l1.03125 0l0 -2.0625153l1.40625 -0.84375l0 2.9062653l1.40625 0l0 1.09375l-1.40625 0l0 4.84375q0 0.609375 0.0625 0.78125q0.078125 0.171875 0.25 0.28125q0.171875 0.09375 0.484375 0.09375q0.234375 0 0.609375 -0.0625zm0.8515625 -2.890625q0 -2.296875 1.28125 -3.40625q1.078125 -0.92189026 2.609375 -0.92189026q1.71875 0 2.796875 1.1250153q1.09375 1.109375 1.09375 3.09375q0 1.59375 -0.484375 2.515625q-0.484375 0.921875 -1.40625 1.4375q-0.90625 0.5 -2.0 0.5q-1.734375 0 -2.8125 -1.109375q-1.078125 -1.125 -1.078125 -3.234375zm1.453125 0q0 1.59375 0.6875 2.390625q0.703125 0.796875 1.75 0.796875q1.046875 0 1.734375 -0.796875q0.703125 -0.796875 0.703125 -2.4375q0 -1.53125 -0.703125 -2.328125q-0.6875 -0.796875 -1.734375 -0.796875q-1.046875 0 -1.75 0.796875q-0.6875 0.78125 -0.6875 2.375zm7.9609375 4.15625l0 -8.296875l1.265625 0l0 1.25q0.484375 -0.875 0.890625 -1.15625q0.40625 -0.28126526 0.90625 -0.28126526q0.703125 0 1.4375 0.45314026l-0.484375 1.296875q-0.515625 -0.296875 -1.03125 -0.296875q-0.453125 0 -0.828125 0.28125q-0.359375 0.265625 -0.515625 0.765625q-0.234375 0.75 -0.234375 1.640625l0 4.34375l-1.40625 0zm5.28125 3.203125l-0.15625 -1.328125q0.453125 0.125 0.796875 0.125q0.46875 0 0.75 -0.15625q0.28125 -0.15625 0.46875 -0.4375q0.125 -0.203125 0.421875 -1.046875q0.046875 -0.109375 0.125 -0.34375l-3.140625 -8.3125l1.515625 0l1.71875 4.796875q0.34375 0.921875 0.609375 1.921875q0.234375 -0.96875 0.578125 -1.890625l1.765625 -4.828125l1.40625 0l-3.15625 8.4375q-0.5 1.375 -0.78125 1.890625q-0.375 0.6875 -0.859375 1.015625q-0.484375 0.328125 -1.15625 0.328125q-0.40625 0 -0.90625 -0.171875z" fill-rule="nonzero"></path><path fill="#93c47d" d="m347.38846 249.0105l0 0c0 -35.24185 28.569153 -63.81102 63.811005 -63.81102l0 0c16.923737 0 33.154327 6.722931 45.121216 18.68982c11.966888 11.966888 18.68982 28.197464 18.68982 45.1212l0 0c0 35.24185 -28.569153 63.811035 -63.811035 63.811035l0 0c-35.24185 0 -63.811005 -28.569183 -63.811005 -63.811035z" fill-rule="nonzero"></path><path stroke="#000000" stroke-width="2.0" stroke-linejoin="round" stroke-linecap="butt" stroke-dasharray="8.0,6.0" d="m347.38846 249.0105l0 0c0 -35.24185 28.569153 -63.81102 63.811005 -63.81102l0 0c16.923737 0 33.154327 6.722931 45.121216 18.68982c11.966888 11.966888 18.68982 28.197464 18.68982 45.1212l0 0c0 35.24185 -28.569153 63.811035 -63.811035 63.811035l0 0c-35.24185 0 -63.811005 -28.569183 -63.811005 -63.811035z" fill-rule="nonzero"></path><path fill="#000000" d="m392.35962 245.3705l0 -11.453125l4.296875 0q1.3125 0 2.109375 0.34375q0.796875 0.34375 1.234375 1.078125q0.453125 0.71875 0.453125 1.5q0 0.734375 -0.40625 1.390625q-0.390625 0.640625 -1.1875 1.046875q1.03125 0.296875 1.59375 1.03125q0.5625 0.734375 0.5625 1.734375q0 0.8125 -0.34375 1.5q-0.34375 0.6875 -0.84375 1.0625q-0.5 0.375 -1.25 0.578125q-0.75 0.1875 -1.84375 0.1875l-4.375 0zm1.515625 -6.640625l2.484375 0q1.0 0 1.4375 -0.140625q0.578125 -0.171875 0.875 -0.5625q0.296875 -0.40625 0.296875 -1.0q0 -0.578125 -0.28125 -1.0q-0.265625 -0.4375 -0.78125 -0.59375q-0.5 -0.171875 -1.734375 -0.171875l-2.296875 0l0 3.46875zm0 5.28125l2.859375 0q0.734375 0 1.03125 -0.046875q0.515625 -0.09375 0.859375 -0.3125q0.359375 -0.21875 0.578125 -0.640625q0.234375 -0.421875 0.234375 -0.96875q0 -0.640625 -0.328125 -1.109375q-0.328125 -0.46875 -0.90625 -0.65625q-0.578125 -0.203125 -1.671875 -0.203125l-2.65625 0l0 3.9375zm8.515625 -2.796875q0 -2.296875 1.28125 -3.40625q1.078125 -0.921875 2.609375 -0.921875q1.71875 0 2.796875 1.125q1.09375 1.109375 1.09375 3.09375q0 1.59375 -0.484375 2.515625q-0.484375 0.921875 -1.40625 1.4375q-0.90625 0.5 -2.0 0.5q-1.734375 0 -2.8125 -1.109375q-1.078125 -1.125 -1.078125 -3.234375zm1.453125 0q0 1.59375 0.6875 2.390625q0.703125 0.796875 1.75 0.796875q1.046875 0 1.734375 -0.796875q0.703125 -0.796875 0.703125 -2.4375q0 -1.53125 -0.703125 -2.328125q-0.6875 -0.796875 -1.734375 -0.796875q-1.046875 0 -1.75 0.796875q-0.6875 0.78125 -0.6875 2.375zm9.2734375 4.15625l-1.3125 0l0 -11.453125l1.40625 0l0 4.078125q0.890625 -1.109375 2.28125 -1.109375q0.765625 0 1.4375 0.3125q0.6875 0.296875 1.125 0.859375q0.453125 0.5625 0.703125 1.359375q0.25 0.78125 0.25 1.671875q0 2.140625 -1.0625 3.3125q-1.046875 1.15625 -2.53125 1.15625q-1.46875 0 -2.296875 -1.234375l0 1.046875zm-0.015625 -4.21875q0 1.5 0.40625 2.15625q0.65625 1.09375 1.796875 1.09375q0.921875 0 1.59375 -0.796875q0.671875 -0.8125 0.671875 -2.390625q0 -1.625 -0.65625 -2.390625q-0.640625 -0.78125 -1.546875 -0.78125q-0.921875 0 -1.59375 0.796875q-0.671875 0.796875 -0.671875 2.3125zm7.5234375 -5.71875l0 -1.640625l1.515625 0l0 1.296875q0 1.046875 -0.25 1.5q-0.328125 0.640625 -1.046875 0.953125l-0.34375 -0.546875q0.421875 -0.171875 0.625 -0.546875q0.21875 -0.375 0.234375 -1.015625l-0.734375 0zm3.0859375 7.453125l1.390625 -0.21875q0.109375 0.84375 0.640625 1.296875q0.546875 0.4375 1.5 0.4375q0.96875 0 1.4375 -0.390625q0.46875 -0.40625 0.46875 -0.9375q0 -0.46875 -0.40625 -0.75q-0.296875 -0.1875 -1.4375 -0.46875q-1.546875 -0.390625 -2.15625 -0.671875q-0.59375 -0.296875 -0.90625 -0.796875q-0.296875 -0.5 -0.296875 -1.109375q0 -0.5625 0.25 -1.03125q0.25 -0.46875 0.6875 -0.78125q0.328125 -0.25 0.890625 -0.40625q0.578125 -0.171875 1.21875 -0.171875q0.984375 0 1.71875 0.28125q0.734375 0.28125 1.078125 0.765625q0.359375 0.46875 0.5 1.28125l-1.375 0.1875q-0.09375 -0.640625 -0.546875 -1.0q-0.453125 -0.359375 -1.265625 -0.359375q-0.96875 0 -1.390625 0.328125q-0.40625 0.3125 -0.40625 0.734375q0 0.28125 0.171875 0.5q0.171875 0.21875 0.53125 0.375q0.21875 0.078125 1.25 0.359375q1.484375 0.390625 2.078125 0.65625q0.59375 0.25 0.921875 0.734375q0.34375 0.484375 0.34375 1.203125q0 0.703125 -0.421875 1.328125q-0.40625 0.609375 -1.1875 0.953125q-0.765625 0.34375 -1.734375 0.34375q-1.625 0 -2.46875 -0.671875q-0.84375 -0.671875 -1.078125 -2.0z" fill-rule="nonzero"></path><path fill="#000000" d="m377.12134 264.3705l0 -8.296875l1.265625 0l0 1.25q0.484375 -0.875 0.890625 -1.15625q0.40625 -0.28126526 0.90625 -0.28126526q0.703125 0 1.4375 0.45314026l-0.484375 1.296875q-0.515625 -0.296875 -1.03125 -0.296875q-0.453125 0 -0.828125 0.28125q-0.359375 0.265625 -0.515625 0.765625q-0.234375 0.75 -0.234375 1.640625l0 4.34375l-1.40625 0zm11.015625 -2.671875l1.453125 0.171875q-0.34375 1.28125 -1.28125 1.984375q-0.921875 0.703125 -2.359375 0.703125q-1.828125 0 -2.890625 -1.125q-1.0625 -1.125 -1.0625 -3.140625q0 -2.09375 1.078125 -3.25q1.078125 -1.1562653 2.796875 -1.1562653q1.65625 0 2.703125 1.1406403q1.0625 1.125 1.0625 3.171875q0 0.125 0 0.375l-6.1875 0q0.078125 1.375 0.765625 2.109375q0.703125 0.71875 1.734375 0.71875q0.78125 0 1.328125 -0.40625q0.546875 -0.40625 0.859375 -1.296875zm-4.609375 -2.28125l4.625 0q-0.09375 -1.046875 -0.53125 -1.5625q-0.671875 -0.8125 -1.734375 -0.8125q-0.96875 0 -1.640625 0.65625q-0.65625 0.640625 -0.71875 1.71875zm7.8359375 8.140625l0 -11.484375l1.28125 0l0 1.078125q0.453125 -0.640625 1.015625 -0.953125q0.578125 -0.31251526 1.390625 -0.31251526q1.0625 0 1.875 0.54689026q0.8125 0.546875 1.21875 1.546875q0.421875 0.984375 0.421875 2.171875q0 1.28125 -0.46875 2.296875q-0.453125 1.015625 -1.328125 1.5625q-0.859375 0.546875 -1.828125 0.546875q-0.703125 0 -1.265625 -0.296875q-0.546875 -0.296875 -0.90625 -0.75l0 4.046875l-1.40625 0zm1.265625 -7.296875q0 1.609375 0.640625 2.375q0.65625 0.765625 1.578125 0.765625q0.9375 0 1.609375 -0.796875q0.671875 -0.796875 0.671875 -2.453125q0 -1.59375 -0.65625 -2.375q-0.65625 -0.796875 -1.5625 -0.796875q-0.890625 0 -1.59375 0.84375q-0.6875 0.84375 -0.6875 2.4375zm7.1015625 -0.046875q0 -2.296875 1.28125 -3.40625q1.078125 -0.92189026 2.609375 -0.92189026q1.71875 0 2.796875 1.1250153q1.09375 1.109375 1.09375 3.09375q0 1.59375 -0.484375 2.515625q-0.484375 0.921875 -1.40625 1.4375q-0.90625 0.5 -2.0 0.5q-1.734375 0 -2.8125 -1.109375q-1.078125 -1.125 -1.078125 -3.234375zm1.453125 0q0 1.59375 0.6875 2.390625q0.703125 0.796875 1.75 0.796875q1.046875 0 1.734375 -0.796875q0.703125 -0.796875 0.703125 -2.4375q0 -1.53125 -0.703125 -2.328125q-0.6875 -0.796875 -1.734375 -0.796875q-1.046875 0 -1.75 0.796875q-0.6875 0.78125 -0.6875 2.375zm7.4140625 1.671875l1.390625 -0.21875q0.109375 0.84375 0.640625 1.296875q0.546875 0.4375 1.5 0.4375q0.96875 0 1.4375 -0.390625q0.46875 -0.40625 0.46875 -0.9375q0 -0.46875 -0.40625 -0.75q-0.296875 -0.1875 -1.4375 -0.46875q-1.546875 -0.390625 -2.15625 -0.671875q-0.59375 -0.296875 -0.90625 -0.796875q-0.296875 -0.5 -0.296875 -1.109375q0 -0.5625 0.25 -1.03125q0.25 -0.46875 0.6875 -0.78125q0.328125 -0.25 0.890625 -0.40625q0.578125 -0.17189026 1.21875 -0.17189026q0.984375 0 1.71875 0.28126526q0.734375 0.28125 1.078125 0.765625q0.359375 0.46875 0.5 1.28125l-1.375 0.1875q-0.09375 -0.640625 -0.546875 -1.0q-0.453125 -0.359375 -1.265625 -0.359375q-0.96875 0 -1.390625 0.328125q-0.40625 0.3125 -0.40625 0.734375q0 0.28125 0.171875 0.5q0.171875 0.21875 0.53125 0.375q0.21875 0.078125 1.25 0.359375q1.484375 0.390625 2.078125 0.65625q0.59375 0.25 0.921875 0.734375q0.34375 0.484375 0.34375 1.203125q0 0.703125 -0.421875 1.328125q-0.40625 0.609375 -1.1875 0.953125q-0.765625 0.34375 -1.734375 0.34375q-1.625 0 -2.46875 -0.671875q-0.84375 -0.671875 -1.078125 -2.0zm8.5625 -7.3593903l0 -1.609375l1.40625 0l0 1.609375l-1.40625 0zm0 9.843765l0 -8.296875l1.40625 0l0 8.296875l-1.40625 0zm6.6171875 -1.265625l0.203125 1.25q-0.59375 0.125 -1.0625 0.125q-0.765625 0 -1.1875 -0.234375q-0.421875 -0.25 -0.59375 -0.640625q-0.171875 -0.40625 -0.171875 -1.671875l0 -4.765625l-1.03125 0l0 -1.09375l1.03125 0l0 -2.0625153l1.40625 -0.84375l0 2.9062653l1.40625 0l0 1.09375l-1.40625 0l0 4.84375q0 0.609375 0.0625 0.78125q0.078125 0.171875 0.25 0.28125q0.171875 0.09375 0.484375 0.09375q0.234375 0 0.609375 -0.0625zm0.8515625 -2.890625q0 -2.296875 1.28125 -3.40625q1.078125 -0.92189026 2.609375 -0.92189026q1.71875 0 2.796875 1.1250153q1.09375 1.109375 1.09375 3.09375q0 1.59375 -0.484375 2.515625q-0.484375 0.921875 -1.40625 1.4375q-0.90625 0.5 -2.0 0.5q-1.734375 0 -2.8125 -1.109375q-1.078125 -1.125 -1.078125 -3.234375zm1.453125 0q0 1.59375 0.6875 2.390625q0.703125 0.796875 1.75 0.796875q1.046875 0 1.734375 -0.796875q0.703125 -0.796875 0.703125 -2.4375q0 -1.53125 -0.703125 -2.328125q-0.6875 -0.796875 -1.734375 -0.796875q-1.046875 0 -1.75 0.796875q-0.6875 0.78125 -0.6875 2.375zm7.9609375 4.15625l0 -8.296875l1.265625 0l0 1.25q0.484375 -0.875 0.890625 -1.15625q0.40625 -0.28126526 0.90625 -0.28126526q0.703125 0 1.4375 0.45314026l-0.484375 1.296875q-0.515625 -0.296875 -1.03125 -0.296875q-0.453125 0 -0.828125 0.28125q-0.359375 0.265625 -0.515625 0.765625q-0.234375 0.75 -0.234375 1.640625l0 4.34375l-1.40625 0zm5.28125 3.203125l-0.15625 -1.328125q0.453125 0.125 0.796875 0.125q0.46875 0 0.75 -0.15625q0.28125 -0.15625 0.46875 -0.4375q0.125 -0.203125 0.421875 -1.046875q0.046875 -0.109375 0.125 -0.34375l-3.140625 -8.3125l1.515625 0l1.71875 4.796875q0.34375 0.921875 0.609375 1.921875q0.234375 -0.96875 0.578125 -1.890625l1.765625 -4.828125l1.40625 0l-3.15625 8.4375q-0.5 1.375 -0.78125 1.890625q-0.375 0.6875 -0.859375 1.015625q-0.484375 0.328125 -1.15625 0.328125q-0.40625 0 -0.90625 -0.171875z" fill-rule="nonzero"></path><path fill="#000000" fill-opacity="0.0" d="m317.68158 127.12121l48.396698 76.76809" fill-rule="nonzero"></path><path stroke="#000000" stroke-width="2.0" stroke-linejoin="round" stroke-linecap="butt" d="m317.68158 127.12121l41.9971 66.616936" fill-rule="evenodd"></path><path fill="#000000" stroke="#000000" stroke-width="2.0" stroke-linecap="butt" d="m356.8842 195.49988l7.634796 5.916092l-2.045807 -9.439545z" fill-rule="evenodd"></path><path fill="#000000" fill-opacity="0.0" d="m333.6824 99.88714l224.09451 0l0 127.62205l-224.09451 0z" fill-rule="nonzero"></path><path fill="#000000" d="m349.82303 114.71839l0 0.71875l-1.234375 0.171875q0.40625 0.53125 0.40625 1.34375q0 1.03125 -0.671875 1.640625q-0.671875 0.59375 -1.875 0.59375q-0.359375 0 -0.546875 -0.03125q-0.640625 0.359375 -0.640625 0.84375q0 0.53125 1.015625 0.53125l1.1875 0q1.109375 0 1.6875 0.5q0.59375 0.484375 0.59375 1.390625q0 2.390625 -3.59375 2.390625q-1.375 0 -2.109375 -0.515625q-0.71875 -0.515625 -0.71875 -1.421875q0 -1.359375 1.53125 -1.71875q-0.609375 -0.296875 -0.609375 -0.984375q0 -0.703125 0.84375 -1.21875q-0.5625 -0.234375 -0.890625 -0.765625q-0.328125 -0.546875 -0.328125 -1.1875q0 -1.15625 0.671875 -1.78125q0.6875 -0.625 1.9375 -0.625q0.546875 0 0.953125 0.125l2.390625 0zm-3.375 3.6875q1.421875 0 1.421875 -1.46875q0 -1.515625 -1.421875 -1.515625q-1.4375 0 -1.4375 1.53125q0 1.453125 1.4375 1.453125zm0.625 3.171875l-1.1875 0q-1.46875 0 -1.46875 1.25q0 1.109375 1.71875 1.109375q2.515625 0 2.515625 -1.421875q0 -0.5625 -0.328125 -0.75q-0.3125 -0.1875 -1.25 -0.1875zm7.6231995 -9.734375q0.671875 0 0.671875 0.734375q0 0.359375 -0.203125 0.546875q-0.1875 0.171875 -0.46875 0.171875q-0.671875 0 -0.671875 -0.71875q0 -0.734375 0.671875 -0.734375zm-0.578125 3.78125l-1.703125 -0.125l0 -0.78125l2.859375 0l0 6.0625l2.234375 0.125l0 0.78125l-5.578125 0l0 -0.78125l2.1875 -0.125l0 -5.15625zm11.029419 5.109375l0 0.875q-0.8125 0.203125 -1.59375 0.203125q-2.296875 0 -2.296875 -2.1875l0 -4.03125l-1.703125 0l0 -0.609375l1.703125 -0.3125l0.484375 -1.8125l0.671875 0l0 1.859375l2.78125 0l0 0.875l-2.78125 0l0 4.03125q0 1.25 1.21875 1.25q0.59375 0 1.515625 -0.140625zm16.261993 -5.765625l-0.390625 1.0q-0.953125 -0.359375 -1.703125 -0.359375q-2.359375 0 -2.359375 2.625q0 2.578125 2.296875 2.578125q1.0 0 2.03125 -0.40625l0 1.015625q-0.84375 0.390625 -2.078125 0.390625q-1.640625 0 -2.546875 -0.921875q-0.890625 -0.921875 -0.890625 -2.65625q0 -1.78125 0.921875 -2.703125q0.921875 -0.9375 2.59375 -0.9375q1.125 0 2.125 0.375zm4.6388245 -2.25l-1.703125 -0.140625l0 -0.765625l2.859375 0l0 8.96875l2.234375 0.125l0 0.78125l-5.578125 0l0 -0.78125l2.1875 -0.125l0 -8.0625zm8.498169 9.09375q-1.375 0 -2.265625 -0.984375q-0.875 -0.984375 -0.875 -2.640625q0 -1.671875 0.859375 -2.625q0.859375 -0.96875 2.3125 -0.96875q1.390625 0 2.265625 0.984375q0.890625 0.984375 0.890625 2.609375q0 1.6875 -0.875 2.65625q-0.875 0.96875 -2.3125 0.96875zm0.015625 -0.953125q1.96875 0 1.96875 -2.671875q0 -2.640625 -1.96875 -2.640625q-1.96875 0 -1.96875 2.640625q0 2.671875 1.96875 2.671875zm9.732574 0.828125l0 -4.484375q0 -1.65625 -1.5 -1.65625q-1.953125 0 -1.953125 2.53125l0 3.609375l-1.15625 0l0 -6.96875l0.9375 0l0.171875 0.9375l0.0625 0q0.65625 -1.0625 2.125 -1.0625q2.46875 0 2.46875 2.546875l0 4.546875l-1.15625 0zm9.326294 -3.265625l-4.90625 0q0.046875 2.390625 2.1875 2.390625q1.234375 0 2.34375 -0.484375l0 1.015625q-1.0625 0.46875 -2.3125 0.46875q-1.5625 0 -2.5 -0.9375q-0.921875 -0.953125 -0.921875 -2.625q0 -1.6875 0.859375 -2.671875q0.859375 -0.984375 2.296875 -0.984375q1.34375 0 2.140625 0.859375q0.8125 0.84375 0.8125 2.25l0 0.71875zm-4.890625 -0.9375l3.640625 0q0 -1.9375 -1.71875 -1.9375q-1.75 0 -1.921875 1.9375zm16.090118 3.328125l-0.078125 0l-0.234375 0.875l-0.84375 0l0 -9.875l1.15625 0l0 2.390625q0 0.515625 -0.046875 1.421875l0.046875 0q0.6875 -1.03125 2.046875 -1.03125q1.28125 0 2.0 0.953125q0.734375 0.9375 0.734375 2.640625q0 1.71875 -0.734375 2.671875q-0.734375 0.953125 -2.0 0.953125q-1.3125 0 -2.046875 -1.0zm0 -2.625q0 1.4375 0.4375 2.0625q0.453125 0.609375 1.40625 0.609375q1.734375 0 1.734375 -2.6875q0 -2.625 -1.734375 -2.625q-0.984375 0 -1.421875 0.609375q-0.421875 0.59375 -0.421875 2.03125zm9.716949 3.625q-1.375 0 -2.265625 -0.984375q-0.875 -0.984375 -0.875 -2.640625q0 -1.671875 0.859375 -2.625q0.859375 -0.96875 2.3125 -0.96875q1.390625 0 2.265625 0.984375q0.890625 0.984375 0.890625 2.609375q0 1.6875 -0.875 2.65625q-0.875 0.96875 -2.3125 0.96875zm0.015625 -0.953125q1.96875 0 1.96875 -2.671875q0 -2.640625 -1.96875 -2.640625q-1.96875 0 -1.96875 2.640625q0 2.671875 1.96875 2.671875zm6.263794 -0.046875l-0.078125 0l-0.234375 0.875l-0.84375 0l0 -9.875l1.15625 0l0 2.390625q0 0.515625 -0.046875 1.421875l0.046875 0q0.6875 -1.03125 2.046875 -1.03125q1.28125 0 2.0 0.953125q0.734375 0.9375 0.734375 2.640625q0 1.71875 -0.734375 2.671875q-0.734375 0.953125 -2.0 0.953125q-1.3125 0 -2.046875 -1.0zm0 -2.625q0 1.4375 0.4375 2.0625q0.453125 0.609375 1.40625 0.609375q1.734375 0 1.734375 -2.6875q0 -2.625 -1.734375 -2.625q-0.984375 0 -1.421875 0.609375q-0.421875 0.59375 -0.421875 2.03125zm10.920074 0.953125l-0.03125 0q-0.46875 1.140625 -1.453125 1.140625q-0.765625 0 -1.21875 -0.65625q-0.4375 -0.671875 -0.4375 -1.78125q0 -1.3125 0.609375 -2.109375q0.625 -0.8125 1.625 -0.8125q0.875 0 1.625 0.296875l-0.140625 2.640625q-0.015625 0.25 -0.015625 0.4375l0 0.046875q0 1.125 0.453125 1.125q0.640625 0 0.640625 -2.4375q0 -1.765625 -0.703125 -2.765625q-0.703125 -1.0 -1.90625 -1.0q-1.421875 0 -2.234375 1.21875q-0.796875 1.21875 -0.796875 3.34375q0 1.984375 0.8125 3.0625q0.828125 1.078125 2.34375 1.078125q1.15625 0 2.203125 -0.484375l0 0.84375q-1.0 0.515625 -2.234375 0.515625q-1.890625 0 -2.953125 -1.3125q-1.0625 -1.3125 -1.0625 -3.671875q0 -2.515625 1.046875 -3.984375q1.0625 -1.46875 2.890625 -1.46875q1.578125 0 2.515625 1.25q0.953125 1.234375 0.953125 3.390625q0 1.46875 -0.40625 2.359375q-0.40625 0.875 -1.140625 0.875q-0.8125 0 -0.984375 -1.140625zm-0.296875 -3.265625q-0.34375 -0.125 -0.65625 -0.125q-0.5625 0 -0.875 0.59375q-0.296875 0.59375 -0.296875 1.515625q0 1.609375 0.8125 1.609375q0.828125 0 0.90625 -1.984375l0.109375 -1.609375zm9.951294 -0.90625l-0.390625 1.0q-0.953125 -0.359375 -1.703125 -0.359375q-2.359375 0 -2.359375 2.625q0 2.578125 2.296875 2.578125q1.0 0 2.03125 -0.40625l0 1.015625q-0.84375 0.390625 -2.078125 0.390625q-1.640625 0 -2.546875 -0.921875q-0.890625 -0.921875 -0.890625 -2.65625q0 -1.78125 0.921875 -2.703125q0.921875 -0.9375 2.59375 -0.9375q1.125 0 2.125 0.375zm5.1388245 6.84375q-1.375 0 -2.265625 -0.984375q-0.875 -0.984375 -0.875 -2.640625q0 -1.671875 0.859375 -2.625q0.859375 -0.96875 2.3125 -0.96875q1.390625 0 2.265625 0.984375q0.890625 0.984375 0.890625 2.609375q0 1.6875 -0.875 2.65625q-0.875 0.96875 -2.3125 0.96875zm0.015625 -0.953125q1.96875 0 1.96875 -2.671875q0 -2.640625 -1.96875 -2.640625q-1.96875 0 -1.96875 2.640625q0 2.671875 1.96875 2.671875zm9.795044 -0.109375l-0.046875 0q-0.71875 1.0625 -2.046875 1.0625q-1.265625 0 -2.0 -0.9375q-0.71875 -0.953125 -0.71875 -2.65625q0 -1.71875 0.71875 -2.671875q0.734375 -0.953125 2.0 -0.953125q1.3125 0 2.046875 1.015625l0.078125 0q-0.078125 -0.828125 -0.078125 -1.03125l0 -2.765625l1.15625 0l0 9.875l-0.9375 0l-0.171875 -0.9375zm-0.046875 -2.28125l0 -0.25q0 -1.4375 -0.4375 -2.046875q-0.4375 -0.625 -1.40625 -0.625q-1.734375 0 -1.734375 2.6875q0 2.625 1.75 2.625q0.96875 0 1.390625 -0.5625q0.421875 -0.5625 0.4375 -1.828125zm9.310699 -0.046875l-4.90625 0q0.046875 2.390625 2.1875 2.390625q1.234375 0 2.34375 -0.484375l0 1.015625q-1.0625 0.46875 -2.3125 0.46875q-1.5625 0 -2.5 -0.9375q-0.921875 -0.953125 -0.921875 -2.625q0 -1.6875 0.859375 -2.671875q0.859375 -0.984375 2.296875 -0.984375q1.34375 0 2.140625 0.859375q0.8125 0.84375 0.8125 2.25l0 0.71875zm-4.890625 -0.9375l3.640625 0q0 -1.9375 -1.71875 -1.9375q-1.75 0 -1.921875 1.9375zm9.826294 2.296875q0.96875 0 0.96875 1.046875q0 1.0625 -0.96875 1.0625q-0.953125 0 -0.953125 -1.0625q0 -1.046875 0.953125 -1.046875zm5.3888245 1.59375l0 -1.046875q1.234375 0.546875 2.359375 0.546875q1.75 0 1.75 -1.03125q0 -0.359375 -0.3125 -0.625q-0.3125 -0.28125 -1.4375 -0.6875q-1.484375 -0.546875 -1.875 -1.0q-0.375 -0.46875 -0.375 -1.09375q0 -0.859375 0.703125 -1.34375q0.71875 -0.5 1.96875 -0.5q1.25 0 2.34375 0.46875l-0.390625 0.9375q-1.15625 -0.453125 -2.015625 -0.453125q-1.5 0 -1.5 0.84375q0 0.390625 0.3125 0.625q0.328125 0.234375 1.484375 0.640625q1.328125 0.484375 1.765625 0.96875q0.453125 0.46875 0.453125 1.15625q0 0.953125 -0.75 1.5q-0.734375 0.53125 -2.09375 0.53125q-1.578125 0 -2.390625 -0.4375zm13.670044 -2.953125l-4.90625 0q0.046875 2.390625 2.1875 2.390625q1.234375 0 2.34375 -0.484375l0 1.015625q-1.0625 0.46875 -2.3125 0.46875q-1.5625 0 -2.5 -0.9375q-0.921875 -0.953125 -0.921875 -2.625q0 -1.6875 0.859375 -2.671875q0.859375 -0.984375 2.296875 -0.984375q1.34375 0 2.140625 0.859375q0.8125 0.84375 0.8125 2.25l0 0.71875zm-4.890625 -0.9375l3.640625 0q0 -1.9375 -1.71875 -1.9375q-1.75 0 -1.921875 1.9375zm11.623199 4.203125l-0.234375 -0.96875l-0.0625 0q-0.484375 0.625 -1.0 0.859375q-0.515625 0.234375 -1.328125 0.234375q-1.03125 0 -1.625 -0.546875q-0.578125 -0.546875 -0.578125 -1.53125q0 -2.109375 3.234375 -2.203125l1.296875 -0.046875l0 -0.4375q0 -1.5 -1.5625 -1.5q-0.921875 0 -2.078125 0.515625l-0.390625 -0.859375q1.234375 -0.609375 2.421875 -0.609375q1.4375 0 2.078125 0.546875q0.65625 0.546875 0.65625 1.765625l0 4.78125l-0.828125 0zm-0.3125 -3.40625l-1.03125 0.046875q-1.25 0.046875 -1.765625 0.390625q-0.515625 0.328125 -0.515625 1.03125q0 1.125 1.265625 1.125q0.9375 0 1.484375 -0.515625q0.5625 -0.515625 0.5625 -1.453125l0 -0.625zm3.904419 3.09375l0 -1.046875q1.234375 0.546875 2.359375 0.546875q1.75 0 1.75 -1.03125q0 -0.359375 -0.3125 -0.625q-0.3125 -0.28125 -1.4375 -0.6875q-1.484375 -0.546875 -1.875 -1.0q-0.375 -0.46875 -0.375 -1.09375q0 -0.859375 0.703125 -1.34375q0.71875 -0.5 1.96875 -0.5q1.25 0 2.34375 0.46875l-0.390625 0.9375q-1.15625 -0.453125 -2.015625 -0.453125q-1.5 0 -1.5 0.84375q0 0.390625 0.3125 0.625q0.328125 0.234375 1.484375 0.640625q1.328125 0.484375 1.765625 0.96875q0.453125 0.46875 0.453125 1.15625q0 0.953125 -0.75 1.5q-0.734375 0.53125 -2.09375 0.53125q-1.578125 0 -2.390625 -0.4375zm10.607544 -1.59375q0.96875 0 0.96875 1.046875q0 1.0625 -0.96875 1.0625q-0.953125 0 -0.953125 -1.0625q0 -1.046875 0.953125 -1.046875z" fill-rule="nonzero"></path><path fill="#000000" d="m348.3074 137.68713l0 -4.484375q0 -1.65625 -1.5 -1.65625q-1.953125 0 -1.953125 2.53125l0 3.609375l-1.15625 0l0 -9.874992l1.15625 0l0 2.9374924l-0.046875 0.90625l0.0625 0q0.65625 -1.0625 2.125 -1.0625q2.46875 0 2.46875 2.546875l0 4.546875l-1.15625 0zm8.060699 0l-0.234375 -0.96875l-0.0625 0q-0.484375 0.625 -1.0 0.859375q-0.515625 0.234375 -1.328125 0.234375q-1.03125 0 -1.625 -0.546875q-0.578125 -0.546875 -0.578125 -1.53125q0 -2.109375 3.234375 -2.203125l1.296875 -0.046875l0 -0.4375q0 -1.5 -1.5625 -1.5q-0.921875 0 -2.078125 0.515625l-0.390625 -0.859375q1.234375 -0.609375 2.421875 -0.609375q1.4375 0 2.078125 0.546875q0.65625 0.546875 0.65625 1.765625l0 4.78125l-0.828125 0zm-0.3125 -3.40625l-1.03125 0.046875q-1.25 0.046875 -1.765625 0.390625q-0.515625 0.328125 -0.515625 1.03125q0 1.125 1.265625 1.125q0.9375 0 1.484375 -0.515625q0.5625 -0.515625 0.5625 -1.453125l0 -0.625zm9.341919 -3.40625l-0.3125 1.0625q-0.78125 -0.296875 -1.421875 -0.296875q-1.03125 0 -1.59375 0.59375q-0.5625 0.578125 -0.5625 1.6875l0 3.765625l-1.15625 0l0 -6.96875l0.9375 0l0.140625 1.28125l0.0625 0q0.46875 -0.765625 1.015625 -1.078125q0.5625 -0.328125 1.375 -0.328125q0.75 0 1.515625 0.28125zm4.4356995 6.8125l-2.640625 -6.96875l1.203125 0l1.515625 4.140625q0.546875 1.46875 0.640625 2.0625l0.03125 0q0.046875 -0.28125 0.640625 -2.0625l1.515625 -4.140625l1.203125 0l-2.640625 6.96875l-1.46875 0zm10.529419 0l-0.234375 -0.96875l-0.0625 0q-0.484375 0.625 -1.0 0.859375q-0.515625 0.234375 -1.328125 0.234375q-1.03125 0 -1.625 -0.546875q-0.578125 -0.546875 -0.578125 -1.53125q0 -2.109375 3.234375 -2.203125l1.296875 -0.046875l0 -0.4375q0 -1.5 -1.5625 -1.5q-0.921875 0 -2.078125 0.515625l-0.390625 -0.859375q1.234375 -0.609375 2.421875 -0.609375q1.4375 0 2.078125 0.546875q0.65625 0.546875 0.65625 1.765625l0 4.78125l-0.828125 0zm-0.3125 -3.40625l-1.03125 0.046875q-1.25 0.046875 -1.765625 0.390625q-0.515625 0.328125 -0.515625 1.03125q0 1.125 1.265625 1.125q0.9375 0 1.484375 -0.515625q0.5625 -0.515625 0.5625 -1.453125l0 -0.625zm9.341949 -3.40625l-0.3125 1.0625q-0.78125 -0.296875 -1.421875 -0.296875q-1.03125 0 -1.59375 0.59375q-0.5625 0.578125 -0.5625 1.6875l0 3.765625l-1.15625 0l0 -6.96875l0.9375 0l0.140625 1.28125l0.0625 0q0.46875 -0.765625 1.015625 -1.078125q0.5625 -0.328125 1.375 -0.328125q0.75 0 1.515625 0.28125zm6.966919 5.875l-0.046875 0q-0.71875 1.0625 -2.046875 1.0625q-1.265625 0 -2.0 -0.9375q-0.71875 -0.953125 -0.71875 -2.65625q0 -1.71875 0.71875 -2.671875q0.734375 -0.953125 2.0 -0.953125q1.3125 0 2.046875 1.015625l0.078125 0q-0.078125 -0.828125 -0.078125 -1.03125l0 -2.7656174l1.15625 0l0 9.874992l-0.9375 0l-0.171875 -0.9375zm-0.046875 -2.28125l0 -0.25q0 -1.4375 -0.4375 -2.046875q-0.4375 -0.625 -1.40625 -0.625q-1.734375 0 -1.734375 2.6875q0 2.625 1.75 2.625q0.96875 0 1.390625 -0.5625q0.421875 -0.5625 0.4375 -1.828125zm6.2481995 1.3125q0.96875 0 0.96875 1.046875q0 1.0625 -0.96875 1.0625q-0.953125 0 -0.953125 -1.0625q0 -1.046875 0.953125 -1.046875zm11.060669 -1.359375l-4.90625 0q0.046875 2.390625 2.1875 2.390625q1.234375 0 2.34375 -0.484375l0 1.015625q-1.0625 0.46875 -2.3125 0.46875q-1.5625 0 -2.5 -0.9375q-0.921875 -0.953125 -0.921875 -2.625q0 -1.6875 0.859375 -2.671875q0.859375 -0.984375 2.296875 -0.984375q1.34375 0 2.140625 0.859375q0.8125 0.84375 0.8125 2.25l0 0.71875zm-4.890625 -0.9375l3.640625 0q0 -1.9375 -1.71875 -1.9375q-1.75 0 -1.921875 1.9375zm11.623199 3.265625l-0.046875 0q-0.71875 1.0625 -2.046875 1.0625q-1.265625 0 -2.0 -0.9375q-0.71875 -0.953125 -0.71875 -2.65625q0 -1.71875 0.71875 -2.671875q0.734375 -0.953125 2.0 -0.953125q1.3125 0 2.046875 1.015625l0.078125 0q-0.078125 -0.828125 -0.078125 -1.03125l0 -2.7656174l1.15625 0l0 9.874992l-0.9375 0l-0.171875 -0.9375zm-0.046875 -2.28125l0 -0.25q0 -1.4375 -0.4375 -2.046875q-0.4375 -0.625 -1.40625 -0.625q-1.734375 0 -1.734375 2.6875q0 2.625 1.75 2.625q0.96875 0 1.390625 -0.5625q0.421875 -0.5625 0.4375 -1.828125zm8.216919 3.21875l-0.171875 -0.9375l-0.0625 0q-0.671875 1.0625 -2.125 1.0625q-2.484375 0 -2.484375 -2.546875l0 -4.546875l1.15625 0l0 4.484375q0 1.65625 1.5 1.65625q1.015625 0 1.484375 -0.578125q0.46875 -0.59375 0.46875 -1.953125l0 -3.609375l1.15625 0l0 6.96875l-0.921875 0zm6.0294495 -7.140625q0.8125 0 0.8125 0.875q0 0.875 -0.8125 0.875q-0.796875 0 -0.796875 -0.875q0 -0.875 0.796875 -0.875zm0 5.546875q0.8125 0 0.8125 0.890625q0 0.890625 -0.8125 0.890625q-0.796875 0 -0.796875 -0.890625q0 -0.890625 0.796875 -0.890625z" fill-rule="nonzero"></path><path fill="#000000" d="m346.5574 153.81213q-1.375 0 -2.265625 -0.984375q-0.875 -0.984375 -0.875 -2.640625q0 -1.671875 0.859375 -2.625q0.859375 -0.96875 2.3125 -0.96875q1.390625 0 2.265625 0.984375q0.890625 0.984375 0.890625 2.609375q0 1.6875 -0.875 2.65625q-0.875 0.96875 -2.3125 0.96875zm0.015625 -0.953125q1.96875 0 1.96875 -2.671875q0 -2.640625 -1.96875 -2.640625q-1.96875 0 -1.96875 2.640625q0 2.671875 1.96875 2.671875zm9.966949 0.828125l-0.171875 -0.9375l-0.0625 0q-0.671875 1.0625 -2.125 1.0625q-2.484375 0 -2.484375 -2.546875l0 -4.546875l1.15625 0l0 4.484375q0 1.65625 1.5 1.65625q1.015625 0 1.484375 -0.578125q0.46875 -0.59375 0.46875 -1.953125l0 -3.609375l1.15625 0l0 6.96875l-0.921875 0zm8.857544 -6.8125l-0.3125 1.0625q-0.78125 -0.296875 -1.421875 -0.296875q-1.03125 0 -1.59375 0.59375q-0.5625 0.578125 -0.5625 1.6875l0 3.765625l-1.15625 0l0 -6.96875l0.9375 0l0.140625 1.28125l0.0625 0q0.46875 -0.765625 1.015625 -1.078125q0.5625 -0.328125 1.375 -0.328125q0.75 0 1.515625 0.28125zm7.7481995 5.859375l0 0.875q-0.8125 0.203125 -1.59375 0.203125q-2.296875 0 -2.296875 -2.1875l0 -4.03125l-1.703125 0l0 -0.609375l1.703125 -0.3125l0.484375 -1.8125l0.671875 0l0 1.859375l2.78125 0l0 0.875l-2.78125 0l0 4.03125q0 1.25 1.21875 1.25q0.59375 0 1.515625 -0.140625zm8.482544 -2.3125l-4.90625 0q0.046875 2.390625 2.1875 2.390625q1.234375 0 2.34375 -0.484375l0 1.015625q-1.0625 0.46875 -2.3125 0.46875q-1.5625 0 -2.5 -0.9375q-0.921875 -0.953125 -0.921875 -2.625q0 -1.6875 0.859375 -2.671875q0.859375 -0.984375 2.296875 -0.984375q1.34375 0 2.140625 0.859375q0.8125 0.84375 0.8125 2.25l0 0.71875zm-4.890625 -0.9375l3.640625 0q0 -1.9375 -1.71875 -1.9375q-1.75 0 -1.921875 1.9375zm11.623199 4.203125l-0.234375 -0.96875l-0.0625 0q-0.484375 0.625 -1.0 0.859375q-0.515625 0.234375 -1.328125 0.234375q-1.03125 0 -1.625 -0.546875q-0.578125 -0.546875 -0.578125 -1.53125q0 -2.109375 3.234375 -2.203125l1.296875 -0.046875l0 -0.4375q0 -1.5 -1.5625 -1.5q-0.921875 0 -2.078125 0.515625l-0.390625 -0.859375q1.234375 -0.609375 2.421875 -0.609375q1.4375 0 2.078125 0.546875q0.65625 0.546875 0.65625 1.765625l0 4.78125l-0.828125 0zm-0.3125 -3.40625l-1.03125 0.046875q-1.25 0.046875 -1.765625 0.390625q-0.515625 0.328125 -0.515625 1.03125q0 1.125 1.265625 1.125q0.9375 0 1.484375 -0.515625q0.5625 -0.515625 0.5625 -1.453125l0 -0.625zm8.826294 3.40625l0 -4.484375q0 -0.9375 -0.171875 -1.296875q-0.171875 -0.359375 -0.5625 -0.359375q-0.546875 0 -0.796875 0.53125q-0.25 0.53125 -0.25 1.765625l0 3.84375l-1.03125 0l0 -4.484375q0 -1.65625 -0.78125 -1.65625q-0.546875 0 -0.78125 0.515625q-0.21875 0.5 -0.21875 2.015625l0 3.609375l-1.03125 0l0 -6.96875l0.8125 0l0.171875 0.9375l0.0625 0q0.421875 -1.0625 1.28125 -1.0625q1.03125 0 1.34375 1.15625l0.046875 0q0.484375 -1.15625 1.390625 -1.15625q0.8125 0 1.171875 0.59375q0.375 0.578125 0.375 1.953125l0 4.546875l-1.03125 0zm8.248199 -9.28125l-3.984375 9.28125l-1.125 0l3.96875 -9.28125l1.140625 0zm5.420044 9.40625q-1.375 0 -2.265625 -0.984375q-0.875 -0.984375 -0.875 -2.640625q0 -1.671875 0.859375 -2.625q0.859375 -0.96875 2.3125 -0.96875q1.390625 0 2.265625 0.984375q0.890625 0.984375 0.890625 2.609375q0 1.6875 -0.875 2.65625q-0.875 0.96875 -2.3125 0.96875zm0.015625 -0.953125q1.96875 0 1.96875 -2.671875q0 -2.640625 -1.96875 -2.640625q-1.96875 0 -1.96875 2.640625q0 2.671875 1.96875 2.671875zm9.966949 0.828125l-0.171875 -0.9375l-0.0625 0q-0.671875 1.0625 -2.125 1.0625q-2.484375 0 -2.484375 -2.546875l0 -4.546875l1.15625 0l0 4.484375q0 1.65625 1.5 1.65625q1.015625 0 1.484375 -0.578125q0.46875 -0.59375 0.46875 -1.953125l0 -3.609375l1.15625 0l0 6.96875l-0.921875 0zm8.857544 -6.8125l-0.3125 1.0625q-0.78125 -0.296875 -1.421875 -0.296875q-1.03125 0 -1.59375 0.59375q-0.5625 0.578125 -0.5625 1.6875l0 3.765625l-1.15625 0l0 -6.96875l0.9375 0l0.140625 1.28125l0.0625 0q0.46875 -0.765625 1.015625 -1.078125q0.5625 -0.328125 1.375 -0.328125q0.75 0 1.515625 0.28125zm3.4356995 5.9375l-0.078125 0q0.078125 0.8125 0.078125 1.015625l0 2.984375l-1.15625 0l0 -10.09375l0.9375 0l0.171875 0.9375l0.046875 0q0.703125 -1.0625 2.046875 -1.0625q1.28125 0 2.0 0.953125q0.734375 0.9375 0.734375 2.640625q0 1.71875 -0.734375 2.671875q-0.734375 0.953125 -2.0 0.953125q-1.3125 0 -2.046875 -1.0zm0 -2.890625l0 0.265625q0 1.4375 0.4375 2.0625q0.453125 0.609375 1.40625 0.609375q1.734375 0 1.734375 -2.6875q0 -2.625 -1.734375 -2.625q-0.96875 0 -1.390625 0.5625q-0.421875 0.5625 -0.453125 1.8125zm12.560669 -3.046875l-0.3125 1.0625q-0.78125 -0.296875 -1.421875 -0.296875q-1.03125 0 -1.59375 0.59375q-0.5625 0.578125 -0.5625 1.6875l0 3.765625l-1.15625 0l0 -6.96875l0.9375 0l0.140625 1.28125l0.0625 0q0.46875 -0.765625 1.015625 -1.078125q0.5625 -0.328125 1.375 -0.328125q0.75 0 1.515625 0.28125zm5.1544495 6.9375q-1.375 0 -2.265625 -0.984375q-0.875 -0.984375 -0.875 -2.640625q0 -1.671875 0.859375 -2.625q0.859375 -0.96875 2.3125 -0.96875q1.390625 0 2.265625 0.984375q0.890625 0.984375 0.890625 2.609375q0 1.6875 -0.875 2.65625q-0.875 0.96875 -2.3125 0.96875zm0.015625 -0.953125q1.96875 0 1.96875 -2.671875q0 -2.640625 -1.96875 -2.640625q-1.96875 0 -1.96875 2.640625q0 2.671875 1.96875 2.671875zm8.826294 -9.015625q0.671875 0 0.671875 0.734375q0 0.71875 -0.671875 0.71875q-0.671875 0 -0.671875 -0.71875q0 -0.734375 0.671875 -0.734375zm-3.859375 12.75l0 -0.984375q0.84375 0.25 1.828125 0.25q0.75 0 1.15625 -0.359375q0.421875 -0.359375 0.421875 -1.0l0 -6.875l-2.671875 -0.125l0 -0.78125l3.828125 0l0 7.71875q0 1.140625 -0.71875 1.75q-0.71875 0.625 -2.03125 0.625q-1.03125 0 -1.8125 -0.21875zm14.091949 -6.171875l-4.90625 0q0.046875 2.390625 2.1875 2.390625q1.234375 0 2.34375 -0.484375l0 1.015625q-1.0625 0.46875 -2.3125 0.46875q-1.5625 0 -2.5 -0.9375q-0.921875 -0.953125 -0.921875 -2.625q0 -1.6875 0.859375 -2.671875q0.859375 -0.984375 2.296875 -0.984375q1.34375 0 2.140625 0.859375q0.8125 0.84375 0.8125 2.25l0 0.71875zm-4.890625 -0.9375l3.640625 0q0 -1.9375 -1.71875 -1.9375q-1.75 0 -1.921875 1.9375zm12.670044 -2.515625l-0.390625 1.0q-0.953125 -0.359375 -1.703125 -0.359375q-2.359375 0 -2.359375 2.625q0 2.578125 2.296875 2.578125q1.0 0 2.03125 -0.40625l0 1.015625q-0.84375 0.390625 -2.078125 0.390625q-1.640625 0 -2.546875 -0.921875q-0.890625 -0.921875 -0.890625 -2.65625q0 -1.78125 0.921875 -2.703125q0.921875 -0.9375 2.59375 -0.9375q1.125 0 2.125 0.375zm7.7325745 5.765625l0 0.875q-0.8125 0.203125 -1.59375 0.203125q-2.296875 0 -2.296875 -2.1875l0 -4.03125l-1.703125 0l0 -0.609375l1.703125 -0.3125l0.484375 -1.8125l0.671875 0l0 1.859375l2.78125 0l0 0.875l-2.78125 0l0 4.03125q0 1.25 1.21875 1.25q0.59375 0 1.515625 -0.140625zm5.420044 -0.953125q0.96875 0 0.96875 1.046875q0 1.0625 -0.96875 1.0625q-0.953125 0 -0.953125 -1.0625q0 -1.046875 0.953125 -1.046875zm11.248199 -5.0625l0 0.71875l-1.234375 0.171875q0.40625 0.53125 0.40625 1.34375q0 1.03125 -0.671875 1.640625q-0.671875 0.59375 -1.875 0.59375q-0.359375 0 -0.546875 -0.03125q-0.640625 0.359375 -0.640625 0.84375q0 0.53125 1.015625 0.53125l1.1875 0q1.109375 0 1.6875 0.5q0.59375 0.484375 0.59375 1.390625q0 2.390625 -3.59375 2.390625q-1.375 0 -2.109375 -0.515625q-0.71875 -0.515625 -0.71875 -1.421875q0 -1.359375 1.53125 -1.71875q-0.609375 -0.296875 -0.609375 -0.984375q0 -0.703125 0.84375 -1.21875q-0.5625 -0.234375 -0.890625 -0.765625q-0.328125 -0.546875 -0.328125 -1.1875q0 -1.15625 0.671875 -1.78125q0.6875 -0.625 1.9375 -0.625q0.546875 0 0.953125 0.125l2.390625 0zm-3.375 3.6875q1.421875 0 1.421875 -1.46875q0 -1.515625 -1.421875 -1.515625q-1.4375 0 -1.4375 1.53125q0 1.453125 1.4375 1.453125zm0.625 3.171875l-1.1875 0q-1.46875 0 -1.46875 1.25q0 1.109375 1.71875 1.109375q2.515625 0 2.515625 -1.421875q0 -0.5625 -0.328125 -0.75q-0.3125 -0.1875 -1.25 -0.1875zm7.623169 -9.734375q0.671875 0 0.671875 0.734375q0 0.359375 -0.203125 0.546875q-0.1875 0.171875 -0.46875 0.171875q-0.671875 0 -0.671875 -0.71875q0 -0.734375 0.671875 -0.734375zm-0.578125 3.78125l-1.703125 -0.125l0 -0.78125l2.859375 0l0 6.0625l2.234375 0.125l0 0.78125l-5.578125 0l0 -0.78125l2.1875 -0.125l0 -5.15625zm11.029449 5.109375l0 0.875q-0.8125 0.203125 -1.59375 0.203125q-2.296875 0 -2.296875 -2.1875l0 -4.03125l-1.703125 0l0 -0.609375l1.703125 -0.3125l0.484375 -1.8125l0.671875 0l0 1.859375l2.78125 0l0 0.875l-2.78125 0l0 4.03125q0 1.25 1.21875 1.25q0.59375 0 1.515625 -0.140625z" fill-rule="nonzero"></path></g></svg>

